<svg width="40" height="30" viewBox="0 0 40 30" fill="none" xmlns="http://www.w3.org/2000/svg">
<path d="M12.6792 0L15.3962 3.76884C14.088 4.57286 12.8805 5.57789 11.7736 6.78391C10.566 7.98995 9.50943 9.39698 8.60377 11.005C7.59748 12.6131 6.99371 14.3719 6.79245 16.2814C8.50314 16.0804 10.2641 16.4824 12.0755 17.4874C13.8868 18.593 14.7924 20.4523 14.7924 23.0653C14.7924 25.1759 14.1384 26.8342 12.8302 28.0402C11.4214 29.3467 9.61006 30 7.39622 30C4.57862 30 2.66666 28.995 1.66037 26.9849C0.553459 24.9749 0 22.8141 0 20.5025C0 17.5879 0.553459 14.7739 1.66037 12.0603C2.76729 9.44723 4.27673 7.08542 6.18868 4.97487C8 2.86432 10.1635 1.20603 12.6792 0ZM37.283 0L40 3.76884C38.6918 4.57286 37.4843 5.57789 36.3774 6.78391C35.1698 7.98995 34.1132 9.39698 33.2075 11.005C32.2013 12.6131 31.5975 14.3719 31.3962 16.2814C33.1069 16.0804 34.8679 16.4824 36.6792 17.4874C38.4906 18.593 39.3962 20.4523 39.3962 23.0653C39.3962 25.1759 38.7421 26.8342 37.434 28.0402C36.0252 29.3467 34.2138 30 32 30C29.1824 30 27.2704 28.995 26.2642 26.9849C25.1572 24.9749 24.6038 22.8141 24.6038 20.5025C24.6038 17.5879 25.1572 14.7739 26.2642 12.0603C27.3711 9.44723 28.8805 7.08542 30.7925 4.97487C32.6038 2.86432 34.7673 1.20603 37.283 0Z" fill="#D44646"/>
</svg>
