<svg width="40" height="30" viewBox="0 0 40 30" fill="none" xmlns="http://www.w3.org/2000/svg">
<path d="M27.3208 30L24.6038 26.2312C25.912 25.4271 27.1195 24.4221 28.2264 23.2161C29.434 22.0101 30.4906 20.603 31.3962 18.995C32.4025 17.3869 33.0063 15.6281 33.2076 13.7186C31.4969 13.9196 29.7359 13.5176 27.9245 12.5126C26.1132 11.407 25.2076 9.54774 25.2076 6.93467C25.2076 4.82412 25.8616 3.16583 27.1698 1.9598C28.5786 0.653267 30.3899 0 32.6038 0C35.4214 0 37.3333 1.00503 38.3396 3.01508C39.4465 5.02513 40 7.18593 40 9.49749C40 12.4121 39.4465 15.2261 38.3396 17.9397C37.2327 20.5528 35.7233 22.9146 33.8113 25.0251C32 27.1357 29.8365 28.794 27.3208 30ZM2.71698 30L0 26.2312C1.30818 25.4271 2.51572 24.4221 3.62264 23.2161C4.83019 22.0101 5.88679 20.603 6.79245 18.995C7.79874 17.3869 8.40252 15.6281 8.60377 13.7186C6.89308 13.9196 5.13208 13.5176 3.32075 12.5126C1.50943 11.407 0.603774 9.54774 0.603774 6.93467C0.603774 4.82412 1.25786 3.16583 2.56604 1.9598C3.97484 0.653267 5.78616 0 8 0C10.8176 0 12.7296 1.00503 13.7358 3.01508C14.8428 5.02513 15.3962 7.18593 15.3962 9.49749C15.3962 12.4121 14.8428 15.2261 13.7358 17.9397C12.6289 20.5528 11.1195 22.9146 9.20755 25.0251C7.39623 27.1357 5.23271 28.794 2.71698 30Z" fill="#D44646"/>
</svg>
